<svg width="30" height="30" viewBox="0 0 30 30" fill="none" xmlns="http://www.w3.org/2000/svg">
<path d="M14.9998 9.00001C16.9742 9.00001 18.5748 7.39942 18.5748 5.42501C18.5748 3.45059 16.9742 1.85001 14.9998 1.85001C13.0254 1.85001 11.4248 3.45059 11.4248 5.42501C11.4248 7.39942 13.0254 9.00001 14.9998 9.00001Z" stroke="#34EBAF" stroke-width="3" stroke-miterlimit="10"/>
<path d="M24.5501 24.5125C26.5245 24.5125 28.1251 22.9119 28.1251 20.9375C28.1251 18.9631 26.5245 17.3625 24.5501 17.3625C22.5757 17.3625 20.9751 18.9631 20.9751 20.9375C20.9751 22.9119 22.5757 24.5125 24.5501 24.5125Z" stroke="#34EBAF" stroke-width="3" stroke-miterlimit="10"/>
<path d="M5.45 24.5125C7.42442 24.5125 9.025 22.9119 9.025 20.9375C9.025 18.9631 7.42442 17.3625 5.45 17.3625C3.47558 17.3625 1.875 18.9631 1.875 20.9375C1.875 22.9119 3.47558 24.5125 5.45 24.5125Z" stroke="#34EBAF" stroke-width="3" stroke-miterlimit="10"/>
<path d="M7.5 23.8625C9.50568 25.8202 12.1973 26.916 15 26.916C17.8027 26.916 20.4943 25.8202 22.5 23.8625" stroke="#34EBAF" stroke-width="3" stroke-miterlimit="10"/>
<path d="M18.5249 6.02499C20.6328 6.75368 22.4607 8.1221 23.7537 9.93939C25.0466 11.7567 25.7401 13.9322 25.7374 16.1625C25.7419 16.6228 25.7084 17.0827 25.6374 17.5375" stroke="#34EBAF" stroke-width="3" stroke-miterlimit="10"/>
<path d="M4.3626 17.5C4.29159 17.0452 4.25815 16.5853 4.2626 16.125C4.26771 13.9011 4.96482 11.7339 6.25722 9.92412C7.54962 8.1143 9.37325 6.75158 11.4751 6.02499" stroke="#34EBAF" stroke-width="3" stroke-miterlimit="10"/>
</svg>
